<svg xmlns="http://www.w3.org/2000/svg" width="1024" height="1024" viewBox="0 0 1024 1024"><path fill="#010101" d="M 0.00 0.00 L 1024.00 0.00 L 1024.00 1024.00 L 0.00 1024.00 ZM 387.50 508.49 C390.80,513.17 393.74,517.00 394.02,517.00 C394.31,517.00 407.82,503.61 424.05,487.25 C440.28,470.89 489.88,420.95 534.28,376.29 C578.68,331.62 615.00,294.47 615.00,293.74 C615.00,293.01 612.86,290.79 610.25,288.81 C583.19,268.27 553.77,257.76 519.42,256.34 C495.18,255.33 477.59,258.27 454.90,267.11 C434.22,275.17 417.66,286.18 400.99,302.94 C378.53,325.51 364.00,353.53 357.36,387.05 C355.15,398.19 355.14,423.92 357.33,437.00 C361.53,462.03 371.64,486.00 387.50,508.49 ZM 499.40 633.71 C506.06,640.97 511.79,646.94 512.14,646.96 C513.55,647.05 615.36,536.44 615.85,534.29 C616.06,533.36 596.09,512.64 564.31,480.83 L 512.43 428.90 L 460.46 480.99 C431.88,509.64 408.50,533.47 408.50,533.95 C408.50,534.43 415.07,541.95 423.09,550.66 C442.51,571.74 484.33,617.26 499.40,633.71 ZM 579.43 465.36 C627.75,514.34 630.45,516.90 632.18,515.34 C639.04,509.12 656.13,477.84 661.53,461.58 C672.19,429.51 672.20,393.76 661.56,361.42 C656.10,344.84 638.80,314.31 632.75,310.59 C631.25,309.66 623.73,316.78 579.50,361.00 C551.17,389.32 528.11,412.77 528.25,413.11 C528.39,413.45 551.42,436.96 579.43,465.36 ZM 470.50 697.33 C486.36,698.10 542.54,697.89 559.00,697.00 C608.32,694.33 650.00,687.21 669.61,678.08 C672.97,676.52 677.81,673.24 680.36,670.79 C684.65,666.68 685.00,665.97 685.00,661.42 C684.99,658.27 684.28,655.32 683.00,653.23 C680.57,649.25 673.26,644.46 666.50,642.42 C654.13,638.70 628.64,636.58 627.76,639.21 C627.54,639.88 627.54,641.40 627.77,642.59 C628.13,644.45 629.26,644.92 635.84,645.95 C660.23,649.74 675.10,656.20 672.15,661.72 C669.77,666.16 654.33,672.07 634.97,675.96 C601.62,682.65 566.18,685.40 513.00,685.44 C469.08,685.47 452.20,684.57 419.50,680.46 C375.68,674.96 348.05,665.79 352.56,658.25 C355.11,653.97 369.61,649.18 391.50,645.37 C396.36,644.52 396.50,644.40 396.50,641.07 L 396.50 637.63 L 390.00 637.87 C367.01,638.74 349.36,644.02 342.58,652.08 C337.29,658.38 338.23,665.27 345.26,671.62 C359.30,684.30 408.05,694.31 470.50,697.33 Z"/><path fill="#bd1520" d="M 387.50 508.49 C371.64,486.00 361.53,462.03 357.33,437.00 C355.14,423.92 355.15,398.19 357.36,387.05 C364.00,353.53 378.53,325.51 400.99,302.94 C417.66,286.18 434.22,275.17 454.90,267.11 C477.59,258.27 495.18,255.33 519.42,256.34 C553.77,257.76 583.19,268.27 610.25,288.81 C612.86,290.79 615.00,293.01 615.00,293.74 C615.00,294.47 578.68,331.62 534.28,376.29 C489.88,420.95 440.28,470.89 424.05,487.25 C407.82,503.61 394.31,517.00 394.02,517.00 C393.74,517.00 390.80,513.17 387.50,508.49 ZM 499.40 633.71 C484.33,617.26 442.51,571.74 423.09,550.66 C415.07,541.95 408.50,534.43 408.50,533.95 C408.50,533.47 431.88,509.64 460.46,480.99 L 512.43 428.90 L 564.31 480.83 C596.09,512.64 616.06,533.36 615.85,534.29 C615.36,536.44 513.55,647.05 512.14,646.96 C511.79,646.94 506.06,640.97 499.40,633.71 ZM 579.43 465.36 C551.42,436.96 528.39,413.45 528.25,413.11 C528.11,412.77 551.17,389.32 579.50,361.00 C623.73,316.78 631.25,309.66 632.75,310.59 C638.80,314.31 656.10,344.84 661.56,361.42 C672.20,393.76 672.19,429.51 661.53,461.58 C656.13,477.84 639.04,509.12 632.18,515.34 C630.45,516.90 627.75,514.34 579.43,465.36 Z"/><path fill="#fbf9f5" d="M 470.50 697.33 C408.05,694.31 359.30,684.30 345.26,671.62 C338.23,665.27 337.29,658.38 342.58,652.08 C349.36,644.02 367.01,638.74 390.00,637.87 L 396.50 637.63 L 396.50 641.07 C396.50,644.40 396.36,644.52 391.50,645.37 C369.61,649.18 355.11,653.97 352.56,658.25 C348.05,665.79 375.68,674.96 419.50,680.46 C452.20,684.57 469.08,685.47 513.00,685.44 C566.18,685.40 601.62,682.65 634.97,675.96 C654.33,672.07 669.77,666.16 672.15,661.72 C675.10,656.20 660.23,649.74 635.84,645.95 C629.26,644.92 628.13,644.45 627.77,642.59 C627.54,641.40 627.54,639.88 627.76,639.21 C628.64,636.58 654.13,638.70 666.50,642.42 C673.26,644.46 680.57,649.25 683.00,653.23 C684.28,655.32 684.99,658.27 685.00,661.42 C685.00,665.97 684.65,666.68 680.36,670.79 C677.81,673.24 672.97,676.52 669.61,678.08 C650.00,687.21 608.32,694.33 559.00,697.00 C542.54,697.89 486.36,698.10 470.50,697.33 Z"/></svg>